<?xml version="1.0" standalone="no"?>
<!DOCTYPE svg PUBLIC "-//W3C//DTD SVG 20010904//EN"
 "http://www.w3.org/TR/2001/REC-SVG-20010904/DTD/svg10.dtd">
<svg version="1.0" xmlns="http://www.w3.org/2000/svg"
 width="270.000000pt" height="270.000000pt" viewBox="0 0 270.000000 270.000000"
 preserveAspectRatio="xMidYMid meet">
<metadata>
Created by potrace 1.11, written by Peter Selinger 2001-2013
</metadata>
<g transform="translate(0.000000,270.000000) scale(0.100000,-0.100000)"
fill="#000000" stroke="none">
<path d="M1507 2479 c-21 -5 -57 -18 -80 -29 -29 -14 -53 -19 -77 -15 -20 3
-46 0 -60 -8 -21 -11 -32 -10 -65 2 -60 21 -169 18 -237 -8 -65 -25 -90 -47
-64 -57 12 -4 0 -14 -41 -34 -119 -56 -214 -155 -229 -239 -4 -20 -24 -56 -44
-81 -100 -121 -108 -249 -28 -444 27 -66 35 -96 22 -83 -12 12 -64 -23 -79
-53 -18 -35 -24 -109 -13 -165 15 -78 17 -88 38 -130 25 -51 82 -110 132 -136
31 -16 38 -25 47 -70 25 -113 86 -210 187 -293 70 -57 196 -136 219 -136 8 0
15 -4 15 -9 0 -15 -32 -22 -74 -16 -29 4 -76 -3 -161 -25 -66 -17 -135 -33
-155 -36 -54 -7 -121 -35 -117 -48 11 -33 280 -141 407 -162 14 -2 48 -9 75
-15 75 -16 308 -19 411 -4 106 15 228 45 316 79 89 33 208 94 208 107 0 15
-58 36 -125 44 -67 8 -59 6 -184 35 -52 11 -106 20 -120 19 -46 -4 -81 1 -81
10 0 5 28 23 62 41 125 63 237 158 300 251 24 36 57 122 72 189 4 17 19 31 47
45 102 48 175 206 164 354 -5 70 -36 118 -82 126 -21 3 -22 -1 12 100 22 63
26 92 22 137 -3 35 -1 61 5 64 19 12 0 114 -33 181 -18 36 -58 92 -88 124 -31
32 -48 56 -39 53 70 -22 -83 144 -177 193 -33 17 -76 34 -95 38 -28 5 -125 46
-150 63 -2 2 1 11 7 21 20 32 2 37 -70 20z"/>
</g>
</svg>
